Coordinates
version=1
nRows=10
nColumns=34
inDegrees=yes

Units are S.I. units (second, meters, Newtons, ...)
If the header above contains a line with 'inDegrees', this indicates whether rotational values are in degrees (yes) or radians (no).

endheader
time	pelvis_tilt	pelvis_list	pelvis_rotation	pelvis_tx	pelvis_ty	pelvis_tz	hip_flexion_r	hip_adduction_r	hip_rotation_r	knee_angle_r	ankle_angle_r	subtalar_angle_r	mtp_angle_r	hip_flexion_l	hip_adduction_l	hip_rotation_l	knee_angle_l	ankle_angle_l	subtalar_angle_l	mtp_angle_l	lumbar_extension	lumbar_bending	lumbar_rotation	arm_flex_r	arm_add_r	arm_rot_r	elbow_flex_r	pro_sup_r	arm_flex_l	arm_add_l	arm_rot_l	elbow_flex_l	pro_sup_l
      2.95000000	     -1.55999161	     -0.81911787	     -2.36934136	     -0.93648157	      0.99286418	     -0.04259075	     -8.40362164	      5.36890387	      2.67283359	      0.00000000	     11.42520486	      2.64978683	      0.00000000	     23.34624787	      0.72329666	     -5.06740113	      6.76617531	      1.54929663	      4.23377082	      0.00000000	     -5.41148043	      4.10875143	      3.11572836	      0.51492755	     -6.94566787	      0.23951147	     29.47408645	     87.57240633	     -2.45479389	     -4.69264075	     10.81489218	     21.65180767	     78.83867433
      2.96666670	     -1.54960348	     -1.13238124	     -2.48821449	     -0.92370825	      0.98701556	     -0.04214257	     -9.26488008	      5.64746003	      3.06480292	      0.00000000	     13.04245043	      2.38009804	      0.00000000	     23.59712493	      0.38122439	     -4.11671347	      3.90928152	      1.40548624	      4.43236663	      0.00000000	     -5.62341279	      4.26155016	      3.11597613	      0.67191317	     -6.88012892	      0.46296871	     29.53907014	     87.53591211	     -2.14137656	     -4.70040796	     10.77164770	     21.65409210	     78.88118446
      2.98333330	     -1.32476762	     -1.27183804	     -2.56337168	     -0.90883308	      0.98105765	     -0.04194025	    -10.43272196	      5.73353429	      3.38992048	      0.00000000	     14.26795264	      2.08460588	      0.00000000	     23.53634152	      0.17626258	     -3.09233994	      1.99951289	      1.21723859	      3.76883345	      0.00000000	     -6.10212767	      4.14814937	      3.06455408	      0.87356617	     -6.76156879	      0.78843163	     29.55254676	     87.47612456	     -1.77587900	     -4.79836770	     10.75804905	     21.63195368	     78.94831544
      3.00000000	     -1.06892714	     -1.28562059	     -2.52209766	     -0.89340483	      0.97806807	     -0.04263400	    -11.68504788	      5.67874954	      3.54687034	      0.00000000	     14.80857878	      1.80686282	      0.00000000	     23.45284087	      0.16959165	     -1.82694802	      1.37687093	      0.94561639	      2.00760440	      0.00000000	     -6.58584893	      3.87454940	      2.85409545	      1.04726455	     -6.59181845	      1.20197835	     29.39102764	     87.36276542	     -1.49273598	     -4.96385432	     10.80689659	     21.60328747	     79.04963147
      3.01666670	     -0.91142788	     -1.05106406	     -2.35290312	     -0.87795525	      0.97801424	     -0.04415236	    -12.90722843	      5.35610251	      3.57316345	      0.00000000	     15.03588495	      1.60889827	      0.00000000	     23.40919414	      0.55832101	     -0.71015899	      1.88185623	      0.67673466	     -0.06153711	      0.00000000	     -6.67909906	      3.31739205	      2.48957928	      1.10949735	     -6.40053064	      1.52131698	     29.07271157	     87.22507786	     -1.31821744	     -5.15017312	     10.89701315	     21.59129312	     79.14452882
      3.03333330	     -0.80012940	     -0.50992186	     -2.19542396	     -0.86264212	      0.97966204	     -0.04587995	    -14.10886440	      4.68923773	      3.38319349	      0.00000000	     14.85729579	      1.61860086	      0.00000000	     23.37148050	      1.37284640	     -0.06680138	      3.31799741	      0.18105203	     -2.33331330	      0.00000000	     -6.67285260	      2.43002463	      2.12852726	      1.11177005	     -6.05027398	      1.77594807	     28.69656922	     87.08997580	     -1.16133218	     -5.50455317	     10.99222452	     21.55917462	     79.22590550
      3.05000000	     -0.77240506	      0.06505643	     -2.13055523	     -0.84763213	      0.98078880	     -0.04760729	    -15.20773166	      3.96861357	      3.04855908	      0.00000000	     14.70746278	      2.06634639	      0.00000000	     23.37299998	      2.29688697	      0.53095553	      5.20618982	     -1.14056155	     -5.06350821	      0.00000000	     -6.61285496	      1.44596633	      1.78007693	      1.26765039	     -5.70139262	      2.06969813	     28.15177597	     86.86770391	     -1.00443710	     -5.90323401	     11.20709925	     21.59715505	     79.35815118
      3.06666670	     -0.93074512	      0.71465151	     -2.35896918	     -0.83234465	      0.98099369	     -0.04880437	    -16.06665042	      3.11138732	      2.90840766	      0.00000000	     14.54614975	      2.29023802	      0.00000000	     23.52654254	      3.19520312	      0.00579478	      7.22755368	     -1.45746543	     -5.81695089	      0.00000000	     -6.28931491	      0.43158984	      1.71028845	      1.12603775	     -5.41660485	      2.16350759	     28.04801497	     86.82878576	     -0.94342983	     -6.25541754	     11.21358373	     21.58718804	     79.37781682
      3.08333330	     -1.11156759	      1.30068699	     -2.70340346	     -0.81597831	      0.98008518	     -0.04997030	    -16.87683553	      2.25006288	      2.32988655	      0.00000000	     15.06182353	      3.74771241	      0.00000000	     23.51265872	      4.07803201	      0.22796507	      8.70183194	     -2.36568957	     -7.44255146	      0.00000000	     -5.84140877	     -0.53165875	      1.78950172	      1.08732099	     -5.18561646	      2.35168773	     27.31617746	     86.58685605	     -1.01608989	     -6.61359950	     11.51301156	     21.77853668	     79.53848124
      3.10000000	     -1.28440912	      1.79326874	     -3.09212121	     -0.79800563	      0.97751146	     -0.05083483	    -17.77037140	      1.47534856	      2.32488488	      0.00000000	     15.07862591	      4.03066078	      0.00000000	     23.48194946	      4.78071318	      0.02758433	      9.97132310	     -2.31340764	     -7.62990404	      0.00000000	     -5.46978941	     -1.34974226	      1.78379638	      0.89839142	     -4.96480146	      2.40856888	     27.21205224	     86.54415619	     -1.09288137	     -6.90230811	     11.53209066	     21.74962592	     79.56125619
